<?xml version="1.0" encoding="utf-8"?>
<!-- Generator: Adobe Illustrator 18.1.1, SVG Export Plug-In . SVG Version: 6.00 Build 0)  -->
<!DOCTYPE svg PUBLIC "-//W3C//DTD SVG 1.1//EN" "http://www.w3.org/Graphics/SVG/1.1/DTD/svg11.dtd">
<svg version="1.1" id="Layer_1" xmlns="http://www.w3.org/2000/svg" xmlns:xlink="http://www.w3.org/1999/xlink" x="0px" y="0px"
	 viewBox="0 0 400 400" enable-background="new 0 0 400 400" xml:space="preserve">
<g>
	<path fill="#CE242B" d="M276.7,245.7c19.2,0,34.9-15.7,34.9-34.9v-78.4c0-19.2-15.7-34.9-34.9-34.9c-19.3,0-34.9,15.7-34.9,34.9
		v78.4C241.8,230.1,257.5,245.7,276.7,245.7L276.7,245.7z M276.7,245.7"/>
	<path fill="#CE242B" d="M200.9,208.2V194c0-10.9,8.8-19.7,19.7-19.7h0c3,0,5.5-2.5,5.5-5.5V133c0-27.8,22.8-51.2,50.6-51.2
		c18.4,0,34.5,9.9,43.3,24.6c1.7,2.8,6.1,1.7,6.1-1.6c0,0,0-0.1,0-0.1c0-41.8-32.5-74.3-74.3-74.3c-23.1,0-46,10.8-60.9,28.4
		c-14.9-17.6-37.8-28.4-60.9-28.4c-41.8,0-74.3,32.5-74.3,74.3c0,51.4,46,93.4,116.3,155.6l18.9,18.9l18.9-18.9c0,0,0,0,0.1-0.1
		c3.7-3.3,4.5-8.7,2-13C204.8,235.4,200.9,221.9,200.9,208.2z"/>
	<path fill="#CE242B" d="M332.8,190h-6.9c-2.2,0-4,1.8-4,4v14.2c0,24.9-20.2,45.1-45.1,45.1c-24.9,0-45.1-20.2-45.1-45.1V194
		c0-2.2-1.8-4-4-4h-6.9c-2.2,0-4,1.8-4,4v14.2c0,29.7,23.1,55.9,52.6,59.6V278h-31c-2.2,0-4,1.8-4,4v7c0,2.2,1.8,4,4,4h77.1
		c2.2,0,4-1.8,4-4v-7c0-2.2-1.8-4-4-4h-31v-10.1c29.5-3.7,52.6-29.9,52.6-59.6V194C336.9,191.8,335.1,190,332.8,190L332.8,190z
		 M332.8,190"/>
</g>
<g>
	<path fill="#CE242B" d="M36.2,325h18.5v-17.7h10.7v46.4H54.7v-19.7H36.2v19.7H25.5v-46.4h10.7V325z"/>
	<path fill="#CE242B" d="M101.4,340H78.2c0,1.7,0.6,3.9,1.9,5.3c1.5,1.7,3.6,2,5.2,2c1.5,0,3-0.3,4-0.9c0.1-0.1,1.3-0.8,2.2-2.6
		l9.5,1c-1.4,4.4-4.2,6.7-6,7.8c-3,1.8-6.3,2.3-9.8,2.3c-4.7,0-8.8-0.8-12.4-4.5c-2.7-2.7-4.7-6.8-4.7-12c0-4.5,1.6-9.1,4.7-12.3
		c3.8-3.8,8.4-4.5,11.9-4.5c3.5,0,8.5,0.6,12.3,4.7c3.7,3.9,4.4,8.8,4.4,12.6V340z M92.1,334c-0.1-0.3-0.6-2.2-2-3.6
		c-1.1-1-2.7-1.7-4.7-1.7c-2.6,0-4.1,1-5.1,2c-0.8,0.8-1.5,1.9-1.7,3.3H92.1z"/>
	<path fill="#CE242B" d="M129.1,322.7h10v31.1h-10V350c-2.7,4.2-6.6,4.8-9.2,4.8c-4.5,0-8.2-1.1-11.6-4.7c-3.3-3.5-4.5-7.5-4.5-11.6
		c0-5.2,1.9-9.7,4.8-12.5c2.7-2.7,6.5-4.2,10.8-4.2c2.6,0,6.9,0.6,9.7,4.5V322.7z M116.4,332.5c-1,1-2.3,2.9-2.3,5.6
		c0,2.8,1.2,4.6,2.1,5.6c1.4,1.5,3.6,2.4,5.9,2.4c2,0,3.9-0.8,5.2-2.2c1.3-1.3,2.4-3.2,2.4-5.8c0-2.2-0.8-4.3-2.3-5.7
		c-1.5-1.5-3.8-2.2-5.6-2.2C119.7,330.3,117.7,331.2,116.4,332.5z"/>
	<path fill="#CE242B" d="M143.4,322.7h10v4.9c0.9-1.7,2.3-3.3,3.9-4.3c1.7-1,3.4-1.3,5.4-1.3c1.3,0,2.2,0.1,3.3,0.5l-0.6,9.4
		c-1.3-0.7-2.8-1.1-4.5-1.1c-2.2,0-3.8,0.8-5,2.1c-2.2,2.4-2.4,5.7-2.4,8.4v12.6h-10V322.7z"/>
	<path fill="#CE242B" d="M181.4,330.8v23h-10v-23h-3.5v-8.1h3.5v-10h10v10h6.2v8.1H181.4z"/>
	<path fill="#CE242B" d="M214.6,318.7c-3.5-3.1-6.5-3.3-7.8-3.3c-1.5,0-3.3,0.2-4.5,1.6c-0.7,0.7-1.2,1.7-1.2,2.9c0,1.1,0.3,2,1,2.6
		c1.1,1,2.7,1.5,5.8,2.6l3.5,1.3c2,0.8,4.5,1.8,6.3,3.6c2.7,2.6,3.4,5.9,3.4,8.6c0,4.8-1.7,9-4.1,11.5c-4.1,4.3-10.1,4.7-13.2,4.7
		c-3.3,0-6.3-0.5-9.2-2c-2.4-1.2-5.1-3.3-6.8-5.1l5.6-7.7c1.2,1.2,3.1,2.8,4.3,3.6c1.8,1.1,3.7,1.7,5.8,1.7c1.4,0,3.3-0.3,4.9-1.6
		c0.9-0.8,1.7-2,1.7-3.8c0-1.5-0.6-2.5-1.6-3.3c-1.3-1-4.1-2.1-5.4-2.6l-3.8-1.3c-2.2-0.8-4.7-1.7-6.5-3.7c-2.4-2.6-2.8-5.8-2.8-8.1
		c0-4.1,1.3-7.6,4-10.4c3.3-3.3,7.2-4.2,11.5-4.2c3.2,0,8.4,0.6,13.8,4.6L214.6,318.7z"/>
	<path fill="#CE242B" d="M234.5,369.7h-10v-47h10v3.7c3.3-4.2,7.3-4.7,9.7-4.7c5.6,0,9.1,2.4,11,4.4c2.8,2.8,4.7,7,4.7,12.1
		c0,5.4-1.9,9.4-4.9,12.5c-3.1,3.1-6.4,4.2-10.5,4.2c-6.2,0-8.8-3.1-9.9-4.6V369.7z M236.2,332.6c-1.6,1.6-2.4,3.8-2.4,5.7
		c0,1.9,0.8,4,2.2,5.5c1.5,1.5,3.6,2.4,5.7,2.4c1.9,0,3.9-0.8,5.4-2.2c1.6-1.5,2.4-3.9,2.4-5.9c0-2.3-1-4.3-2.4-5.6
		c-1.5-1.4-3.4-2.2-5.4-2.2C239,330.3,237.1,331.6,236.2,332.6z"/>
	<path fill="#CE242B" d="M295.8,340h-23.2c0,1.7,0.6,3.9,1.9,5.3c1.5,1.7,3.6,2,5.2,2c1.5,0,3-0.3,4-0.9c0.1-0.1,1.3-0.8,2.2-2.6
		l9.5,1c-1.4,4.4-4.2,6.7-6,7.8c-3,1.8-6.3,2.3-9.8,2.3c-4.7,0-8.8-0.8-12.4-4.5c-2.7-2.7-4.7-6.8-4.7-12c0-4.5,1.6-9.1,4.7-12.3
		c3.8-3.8,8.4-4.5,11.9-4.5s8.5,0.6,12.3,4.7c3.7,3.9,4.4,8.8,4.4,12.6V340z M286.5,334c-0.1-0.3-0.6-2.2-2-3.6
		c-1.1-1-2.7-1.7-4.7-1.7c-2.6,0-4.1,1-5.1,2c-0.8,0.8-1.5,1.9-1.7,3.3H286.5z"/>
	<path fill="#CE242B" d="M323.5,322.7h10v31.1h-10V350c-2.7,4.2-6.6,4.8-9.2,4.8c-4.5,0-8.2-1.1-11.6-4.7c-3.3-3.5-4.5-7.5-4.5-11.6
		c0-5.2,1.9-9.7,4.8-12.5c2.7-2.7,6.5-4.2,10.8-4.2c2.6,0,6.9,0.6,9.7,4.5V322.7z M310.8,332.5c-1,1-2.3,2.9-2.3,5.6
		c0,2.8,1.2,4.6,2.1,5.6c1.4,1.5,3.6,2.4,5.9,2.4c2,0,3.9-0.8,5.2-2.2c1.3-1.3,2.4-3.2,2.4-5.8c0-2.2-0.8-4.3-2.3-5.7
		c-1.5-1.5-3.8-2.2-5.6-2.2C314.1,330.3,312.1,331.2,310.8,332.5z"/>
	<path fill="#CE242B" d="M347.9,303v31.1l11.3-11.4h13.2l-14.8,14.1l15.8,17h-13.5l-12-13.4v13.4h-10V303H347.9z"/>
</g>
</svg>
